<svg xmlns="http://www.w3.org/2000/svg" width="130" height="20" viewBox="0 0 130 20">
  <g fill="none" fill-rule="evenodd">
    <path fill="#252C3F" d="M37.725,0.66646875 L37.725,4.01646875 L32.6,4.01646875 L32.6,18.8789687 L28.375,18.8789687 L28.375,4.01646875 L23.25,4.01646875 L23.25,0.66646875 L37.725,0.66646875 Z M42.75,5.71646875 C43.7333383,5.71646875 44.6291626,5.87063387 45.4375,6.17896875 C46.2458374,6.48730362 46.9395804,6.92896587 47.51875,7.50396875 C48.0979196,8.07897162 48.5479151,8.77688131 48.86875,9.59771875 C49.1895849,10.4185562 49.35,11.3414636 49.35,12.3664687 C49.35,13.3998072 49.1895849,14.3310479 48.86875,15.1602187 C48.5479151,15.9893896 48.0979196,16.6935492 47.51875,17.2727187 C46.9395804,17.8518883 46.2458374,18.2977172 45.4375,18.6102187 C44.6291626,18.9227203 43.7333383,19.0789687 42.75,19.0789687 C41.7583284,19.0789687 40.8562541,18.9227203 40.04375,18.6102187 C39.2312459,18.2977172 38.5312529,17.8518883 37.94375,17.2727187 C37.3562471,16.6935492 36.9020849,15.9893896 36.58125,15.1602187 C36.2604151,14.3310479 36.1,13.3998072 36.1,12.3664687 C36.1,11.3414636 36.2604151,10.4185562 36.58125,9.59771875 C36.9020849,8.77688131 37.3562471,8.07897162 37.94375,7.50396875 C38.5312529,6.92896587 39.2312459,6.48730362 40.04375,6.17896875 C40.8562541,5.87063387 41.7583284,5.71646875 42.75,5.71646875 L42.75,5.71646875 Z M42.75,16.2039687 C43.6416711,16.2039687 44.2979146,15.8893886 44.71875,15.2602187 C45.1395854,14.6310489 45.35,13.6748085 45.35,12.3914687 C45.35,11.108129 45.1395854,10.1539719 44.71875,9.52896875 C44.2979146,8.90396562 43.6416711,8.59146875 42.75,8.59146875 C41.8333287,8.59146875 41.1625021,8.90396562 40.7375,9.52896875 C40.3124979,10.1539719 40.1,11.108129 40.1,12.3914687 C40.1,13.6748085 40.3124979,14.6310489 40.7375,15.2602187 C41.1625021,15.8893886 41.8333287,16.2039687 42.75,16.2039687 L42.75,16.2039687 Z M56.025,19.0789687 C55.4083303,19.0789687 54.8645857,18.9893863 54.39375,18.8102187 C53.9229143,18.6310512 53.5270849,18.3768871 53.20625,18.0477187 C52.8854151,17.7185504 52.6416675,17.3206377 52.475,16.8539687 C52.3083325,16.3872997 52.225,15.8664716 52.225,15.2914687 L52.225,8.59146875 L51.125,8.59146875 C50.924999,8.59146875 50.7541674,8.52688606 50.6125,8.39771875 C50.4708326,8.26855144 50.4,8.07897 50.4,7.82896875 L50.4,6.31646875 L52.4625,5.91646875 L53.225,2.75396875 C53.3250005,2.35396675 53.608331,2.15396875 54.075,2.15396875 L56.1,2.15396875 L56.1,5.94146875 L59.25,5.94146875 L59.25,8.59146875 L56.1,8.59146875 L56.1,15.0289687 C56.1,15.3289702 56.1729159,15.5768844 56.31875,15.7727187 C56.4645841,15.9685531 56.6749986,16.0664687 56.95,16.0664687 C57.0916674,16.0664687 57.2104162,16.0518856 57.30625,16.0227187 C57.4020838,15.9935519 57.4854163,15.9602189 57.55625,15.9227187 C57.6270837,15.8852186 57.6937497,15.8518856 57.75625,15.8227187 C57.8187503,15.7935519 57.8916663,15.7789687 57.975,15.7789687 C58.0916673,15.7789687 58.1854163,15.8060518 58.25625,15.8602187 C58.3270837,15.9143857 58.3999996,15.9998015 58.475,16.1164687 L59.65,17.9539687 C59.1499975,18.3289706 58.5875031,18.6102178 57.9625,18.7977187 C57.3374969,18.9852197 56.69167,19.0789687 56.025,19.0789687 L56.025,19.0789687 Z M70.425,18.8789687 C70.0583315,18.8789687 69.7812509,18.8289692 69.59375,18.7289687 C69.4062491,18.6289682 69.2500006,18.420637 69.125,18.1039687 L68.85,17.3914687 C68.5249984,17.6664701 68.2125015,17.9081344 67.9125,18.1164687 C67.6124985,18.3248031 67.3020849,18.5018847 66.98125,18.6477187 C66.6604151,18.7935528 66.3187518,18.9018851 65.95625,18.9727187 C65.5937482,19.0435524 65.1916689,19.0789687 64.75,19.0789687 C64.1583304,19.0789687 63.6208358,19.0018862 63.1375,18.8477187 C62.6541643,18.6935513 62.2437517,18.4664702 61.90625,18.1664687 C61.5687483,17.8664672 61.3083343,17.4935543 61.125,17.0477187 C60.9416658,16.6018832 60.85,16.087305 60.85,15.5039687 C60.85,15.0456331 60.9666655,14.5748045 61.2,14.0914687 C61.4333345,13.608133 61.8374971,13.1685541 62.4125,12.7727187 C62.9875029,12.3768834 63.7624951,12.0456367 64.7375,11.7789687 C65.7125049,11.5123007 66.9416593,11.3623022 68.425,11.3289687 L68.425,10.7789687 C68.425,10.0206316 68.2687516,9.47272044 67.95625,9.13521875 C67.6437484,8.79771706 67.2000029,8.62896875 66.625,8.62896875 C66.1666644,8.62896875 65.7916681,8.67896825 65.5,8.77896875 C65.2083319,8.87896925 64.9479178,8.99146812 64.71875,9.11646875 C64.4895822,9.24146937 64.2666678,9.35396825 64.05,9.45396875 C63.8333323,9.55396925 63.5750015,9.60396875 63.275,9.60396875 C63.008332,9.60396875 62.7812509,9.53938606 62.59375,9.41021875 C62.4062491,9.28105144 62.2583339,9.12063637 62.15,8.92896875 L61.45,7.71646875 C62.2333373,7.02479862 63.1020786,6.51022044 64.05625,6.17271875 C65.0104214,5.83521706 66.0333279,5.66646875 67.125,5.66646875 C67.9083373,5.66646875 68.6145802,5.79355081 69.24375,6.04771875 C69.8729198,6.30188669 70.4062478,6.65604981 70.84375,7.11021875 C71.2812522,7.56438769 71.6166655,8.10396562 71.85,8.72896875 C72.0833345,9.35397187 72.2,10.0372984 72.2,10.7789687 L72.2,18.8789687 L70.425,18.8789687 Z M65.975,16.5164687 C66.4750025,16.5164687 66.9124981,16.4289696 67.2875,16.2539687 C67.6625019,16.0789679 68.0416647,15.7956374 68.425,15.4039687 L68.425,13.6039687 C67.6499961,13.6373022 67.0125025,13.7039682 66.5125,13.8039687 C66.0124975,13.9039692 65.6166681,14.028968 65.325,14.1789687 C65.0333319,14.3289695 64.8312506,14.4998011 64.71875,14.6914687 C64.6062494,14.8831364 64.55,15.0914676 64.55,15.3164687 C64.55,15.7581376 64.6708321,16.0685512 64.9125,16.2477187 C65.1541679,16.4268863 65.508331,16.5164687 65.975,16.5164687 L65.975,16.5164687 Z M78.95,0.16646875 L78.95,18.8789687 L75.075,18.8789687 L75.075,0.16646875 L78.95,0.16646875 Z M91.75,3.34146875 C91.6749996,3.48313612 91.5666674,3.55396875 91.425,3.55396875 C91.3166661,3.55396875 91.1770842,3.47688619 91.00625,3.32271875 C90.8354158,3.16855131 90.6041681,2.99771969 90.3125,2.81021875 C90.0208319,2.62271781 89.6562522,2.44980287 89.21875,2.29146875 C88.7812478,2.13313462 88.2416699,2.05396875 87.6,2.05396875 C86.9583301,2.05396875 86.3937524,2.1456345 85.90625,2.32896875 C85.4187476,2.512303 85.0104183,2.7623005 84.68125,3.07896875 C84.3520817,3.395637 84.1020842,3.7623 83.93125,4.17896875 C83.7604158,4.5956375 83.675,5.03313312 83.675,5.49146875 C83.675,6.09147175 83.8020821,6.58730012 84.05625,6.97896875 C84.3104179,7.37063737 84.6458313,7.70396737 85.0625,7.97896875 C85.4791687,8.25397012 85.9520807,8.48521781 86.48125,8.67271875 C87.0104193,8.86021969 87.5541639,9.0456345 88.1125,9.22896875 C88.6708361,9.412303 89.2145807,9.61438431 89.74375,9.83521875 C90.2729193,10.0560532 90.7458313,10.3331337 91.1625,10.6664687 C91.5791688,10.9998037 91.9145821,11.4102163 92.16875,11.8977187 C92.4229179,12.3852212 92.55,12.9914651 92.55,13.7164687 C92.55,14.4581391 92.4229179,15.1560488 92.16875,15.8102187 C91.9145821,16.4643887 91.5458358,17.033133 91.0625,17.5164687 C90.5791643,17.9998045 89.9875035,18.3810507 89.2875,18.6602187 C88.5874965,18.9393868 87.7875045,19.0789687 86.8875,19.0789687 C85.7208275,19.0789687 84.7166709,18.8727208 83.875,18.4602187 C83.0333291,18.0477167 82.2958365,17.483139 81.6625,16.7664687 L82.0125,16.2164687 C82.1125005,16.0914681 82.229166,16.0289687 82.3625,16.0289687 C82.4375004,16.0289687 82.5333327,16.0789682 82.65,16.1789687 C82.7666673,16.2789692 82.9083325,16.4018847 83.075,16.5477187 C83.2416675,16.6935528 83.4416655,16.8518846 83.675,17.0227187 C83.9083345,17.1935529 84.1791651,17.3518847 84.4875,17.4977187 C84.7958349,17.6435528 85.149998,17.7664682 85.55,17.8664687 C85.950002,17.9664692 86.4041641,18.0164687 86.9125,18.0164687 C87.6125035,18.0164687 88.2374973,17.9102198 88.7875,17.6977187 C89.3375027,17.4852177 89.8020814,17.1956372 90.18125,16.8289687 C90.5604186,16.4623002 90.849999,16.0268879 91.05,15.5227187 C91.250001,15.0185496 91.35,14.4789716 91.35,13.9039687 C91.35,13.2789656 91.2229179,12.7643874 90.96875,12.3602187 C90.7145821,11.9560501 90.3791688,11.6185534 89.9625,11.3477187 C89.5458313,11.0768841 89.0729193,10.849803 88.54375,10.6664687 C88.0145807,10.4831345 87.4708361,10.3039696 86.9125,10.1289687 C86.3541639,9.95396787 85.8104193,9.7581365 85.28125,9.54146875 C84.7520807,9.324801 84.2791687,9.04772044 83.8625,8.71021875 C83.4458312,8.37271706 83.1104179,7.95188794 82.85625,7.44771875 C82.6020821,6.94354956 82.475,6.31230587 82.475,5.55396875 C82.475,4.96229912 82.5874989,4.3914715 82.8125,3.84146875 C83.0375011,3.291466 83.3666645,2.80605419 83.8,2.38521875 C84.2333355,1.96438331 84.7687468,1.62688669 85.40625,1.37271875 C86.0437532,1.11855081 86.7708293,0.99146875 87.5875,0.99146875 C88.5041712,0.99146875 89.3270797,1.13730062 90.05625,1.42896875 C90.7854203,1.72063687 91.449997,2.16646575 92.05,2.76646875 L91.75,3.34146875 Z M99.85,6.24146875 C100.550004,6.24146875 101.197914,6.36230087 101.79375,6.60396875 C102.389586,6.84563662 102.906248,7.19771644 103.34375,7.66021875 C103.781252,8.12272106 104.122915,8.69146537 104.36875,9.36646875 C104.614585,10.0414721 104.7375,10.8164644 104.7375,11.6914687 C104.7375,11.874803 104.710417,11.9998017 104.65625,12.0664687 C104.602083,12.1331357 104.516667,12.1664687 104.4,12.1664687 L95.4125,12.1664687 L95.4125,12.4039687 C95.4125,13.3373067 95.5208323,14.1581319 95.7375,14.8664687 C95.9541678,15.5748056 96.262498,16.1685497 96.6625,16.6477187 C97.062502,17.1268878 97.5458305,17.4873009 98.1125,17.7289687 C98.6791695,17.9706366 99.3124965,18.0914687 100.0125,18.0914687 C100.637503,18.0914687 101.179164,18.0227194 101.6375,17.8852187 C102.095836,17.7477181 102.481248,17.5935529 102.79375,17.4227187 C103.106252,17.2518846 103.354166,17.0977194 103.5375,16.9602187 C103.720834,16.8227181 103.854166,16.7539687 103.9375,16.7539687 C104.045834,16.7539687 104.129166,16.795635 104.1875,16.8789687 L104.5125,17.2789687 C104.312499,17.52897 104.047918,17.762301 103.71875,17.9789687 C103.389582,18.1956365 103.022919,18.3810513 102.61875,18.5352187 C102.214581,18.6893862 101.781252,18.8123016 101.31875,18.9039687 C100.856248,18.9956359 100.391669,19.0414687 99.925,19.0414687 C99.0749958,19.0414687 98.3000035,18.8935536 97.6,18.5977187 C96.8999965,18.3018839 96.3000025,17.8706382 95.8,17.3039687 C95.2999975,16.7372992 94.9145847,16.0435562 94.64375,15.2227187 C94.3729153,14.4018813 94.2375,13.4623074 94.2375,12.4039687 C94.2375,11.5122976 94.3645821,10.6893892 94.61875,9.93521875 C94.8729179,9.18104831 95.2395809,8.53105481 95.71875,7.98521875 C96.1979191,7.43938269 96.7854132,7.01230362 97.48125,6.70396875 C98.1770868,6.39563387 98.9666623,6.24146875 99.85,6.24146875 L99.85,6.24146875 Z M99.8625,7.12896875 C99.2208301,7.12896875 98.6458359,7.22896775 98.1375,7.42896875 C97.6291641,7.62896975 97.1895852,7.91646687 96.81875,8.29146875 C96.4479148,8.66647062 96.1479178,9.11646612 95.91875,9.64146875 C95.6895822,10.1664714 95.5375004,10.7539655 95.4625,11.4039687 L103.6625,11.4039687 C103.6625,10.7372987 103.570834,10.1393881 103.3875,9.61021875 C103.204166,9.08104944 102.945835,8.63313725 102.6125,8.26646875 C102.279165,7.89980025 101.879169,7.61855306 101.4125,7.42271875 C100.945831,7.22688444 100.42917,7.12896875 99.8625,7.12896875 L99.8625,7.12896875 Z M107.4375,18.8789687 L107.4375,6.44146875 L108.0875,6.44146875 C108.304168,6.44146875 108.429167,6.54563437 108.4625,6.75396875 L108.575,8.62896875 C109.14167,7.9122985 109.80208,7.33522094 110.55625,6.89771875 C111.31042,6.46021656 112.149995,6.24146875 113.075,6.24146875 C113.758337,6.24146875 114.360414,6.349801 114.88125,6.56646875 C115.402086,6.7831365 115.833332,7.09563337 116.175,7.50396875 C116.516668,7.91230412 116.774999,8.40396587 116.95,8.97896875 C117.125001,9.55397162 117.2125,10.2039651 117.2125,10.9289687 L117.2125,18.8789687 L116.025,18.8789687 L116.025,10.9289687 C116.025,9.76229625 115.758336,8.84772206 115.225,8.18521875 C114.691664,7.52271544 113.875006,7.19146875 112.775,7.19146875 C111.958329,7.19146875 111.200004,7.40188331 110.5,7.82271875 C109.799997,8.24355419 109.175003,8.82063175 108.625,9.55396875 L108.625,18.8789687 L107.4375,18.8789687 Z M129.275,18.8789687 C129.066666,18.8789687 128.945834,18.7706365 128.9125,18.5539687 L128.7875,16.5914687 C128.237497,17.3414725 127.593754,17.9372999 126.85625,18.3789687 C126.118746,18.8206376 125.291671,19.0414687 124.375,19.0414687 C122.849992,19.0414687 121.660421,18.5123074 120.80625,17.4539687 C119.952079,16.3956301 119.525,14.808146 119.525,12.6914687 C119.525,11.7831309 119.643749,10.9352227 119.88125,10.1477187 C120.118751,9.36021481 120.468748,8.67688831 120.93125,8.09771875 C121.393752,7.51854919 121.960413,7.06230375 122.63125,6.72896875 C123.302087,6.39563375 124.074996,6.22896875 124.95,6.22896875 C125.791671,6.22896875 126.52083,6.38521719 127.1375,6.69771875 C127.75417,7.01022031 128.287498,7.46646575 128.7375,8.06646875 L128.7375,0.69146875 L129.9375,0.69146875 L129.9375,18.8789687 L129.275,18.8789687 Z M124.7125,18.0789687 C125.537504,18.0789687 126.28333,17.8664709 126.95,17.4414687 C127.61667,17.0164666 128.212497,16.4248059 128.7375,15.6664687 L128.7375,9.10396875 C128.254164,8.39563187 127.72292,7.89563687 127.14375,7.60396875 C126.56458,7.31230062 125.908337,7.16646875 125.175,7.16646875 C124.441663,7.16646875 123.800003,7.29980075 123.25,7.56646875 C122.699997,7.83313675 122.239585,8.21021631 121.86875,8.69771875 C121.497915,9.18522119 121.218751,9.76854869 121.03125,10.4477187 C120.843749,11.1268888 120.75,11.874798 120.75,12.6914687 C120.75,14.541478 121.091663,15.9018811 121.775,16.7727187 C122.458337,17.6435564 123.437494,18.0789687 124.7125,18.0789687 L124.7125,18.0789687 Z"/>
    <polygon fill="#252C3F" points=".268 9.869 9.516 .869 18.268 9.869 18.268 13.903 18.268 18.869 .268 18.869"/>
    <polygon fill="#2F74A6" points="18.303 9.869 18.303 18.869 9.803 18.869"/>
    <polygon fill="#2F74A6" points="8.768 9.869 8.768 18.869 .268 18.869" transform="matrix(-1 0 0 1 9.036 0)"/>
    <polygon fill="#36A1DD" points=".303 18.869 9.551 9.869 18.303 18.869"/>
  </g>
</svg>
